<svg data-v-423bf9ae="" xmlns="http://www.w3.org/2000/svg" viewBox="0 0 3011 2659" class="iconLeft"><!----><!----><!----><g data-v-423bf9ae="" id="1e7e11b1-8d4c-4446-bfe0-5ff47317ad2b" fill="#ffffff" transform="matrix(4.418261864764637,0,0,4.418261864764637,2676.8634035099017,1288.3481200351464)"><path d="M8.74 7.52L9.45 12.60L11.48 12.60L9.94 2.45L5.88 8.64L1.82 2.45L0.28 12.60L2.31 12.60L3.02 7.52L5.88 11.69ZM14.15 9.31C14.15 8.82 14.33 8.41 14.68 8.10C15.03 7.79 15.47 7.63 16.00 7.63C16.53 7.63 16.98 7.77 17.32 8.04C17.68 8.32 17.85 8.74 17.85 9.31C17.85 9.88 17.68 10.30 17.32 10.58C16.98 10.85 16.53 10.99 16.00 10.99C15.45 10.99 15.01 10.85 14.66 10.56C14.32 10.28 14.15 9.86 14.15 9.31ZM12.11 13.09C12.24 14.00 12.63 14.71 13.27 15.24C13.92 15.77 14.80 16.03 15.92 16.03C16.45 16.03 16.94 15.97 17.38 15.84C17.82 15.71 18.23 15.52 18.59 15.25C18.94 14.98 19.23 14.60 19.43 14.13C19.64 13.65 19.74 13.09 19.74 12.46L19.74 6.16L17.85 6.16L17.85 7.28C17.33 6.39 16.55 5.95 15.51 5.95C14.59 5.95 13.81 6.24 13.19 6.83C12.56 7.42 12.25 8.25 12.25 9.31C12.25 10.37 12.56 11.20 13.19 11.79C13.81 12.38 14.59 12.67 15.51 12.67C16.55 12.67 17.33 12.23 17.85 11.34L17.85 12.46C17.85 13.09 17.68 13.57 17.35 13.88C17.02 14.19 16.59 14.35 16.06 14.35C15.45 14.35 14.98 14.23 14.63 14C14.28 13.77 14.08 13.46 14.03 13.09ZM25.69 9.94C25.69 10.49 25.57 10.85 25.32 11.03C25.07 11.20 24.72 11.28 24.26 11.28C23.91 11.28 23.65 11.18 23.48 10.98C23.32 10.77 23.24 10.43 23.24 9.94L23.24 6.16L21.35 6.16L21.35 10.50C21.35 12.00 22.04 12.75 23.42 12.75C24.50 12.75 25.26 12.35 25.69 11.55L25.69 12.60L27.58 12.60L27.58 6.16L25.69 6.16ZM34.78 9.38C34.78 9.93 34.61 10.35 34.27 10.63C33.92 10.92 33.48 11.06 32.93 11.06C32.40 11.06 31.95 10.92 31.60 10.65C31.25 10.37 31.08 9.95 31.08 9.38C31.08 8.81 31.25 8.39 31.60 8.11C31.95 7.84 32.40 7.70 32.93 7.70C33.46 7.70 33.90 7.86 34.25 8.17C34.60 8.48 34.78 8.89 34.78 9.38ZM31.08 15.68L31.08 11.41C31.60 12.30 32.38 12.74 33.42 12.74C34.36 12.74 35.14 12.46 35.76 11.90C36.37 11.34 36.68 10.50 36.68 9.38C36.68 8.26 36.37 7.42 35.76 6.86C35.14 6.30 34.36 6.02 33.42 6.02C32.38 6.02 31.60 6.46 31.08 7.35L31.08 6.16L29.19 6.16L29.19 15.68ZM37.59 3.61C37.59 3.91 37.70 4.17 37.93 4.38C38.16 4.60 38.43 4.70 38.75 4.70C39.07 4.70 39.34 4.60 39.57 4.38C39.80 4.17 39.91 3.91 39.91 3.61C39.91 3.31 39.80 3.06 39.57 2.84C39.34 2.63 39.07 2.52 38.75 2.52C38.43 2.52 38.16 2.63 37.93 2.84C37.70 3.06 37.59 3.31 37.59 3.61ZM37.79 6.16L37.79 12.60L39.70 12.60L39.70 6.16ZM40.61 10.08L43.41 10.08L43.41 8.47L40.61 8.47ZM45.46 10.35L43.83 10.88C43.93 11.48 44.24 11.95 44.77 12.29C45.30 12.64 45.97 12.81 46.77 12.81C47.59 12.81 48.25 12.61 48.77 12.22C49.29 11.83 49.55 11.35 49.55 10.78C49.55 10.23 49.38 9.79 49.04 9.47C48.69 9.15 48.25 8.89 47.70 8.68C47.57 8.63 47.40 8.58 47.21 8.51C47.01 8.45 46.86 8.40 46.76 8.36C46.66 8.32 46.55 8.27 46.44 8.22C46.33 8.16 46.25 8.11 46.20 8.05C46.15 7.99 46.13 7.93 46.13 7.85C46.13 7.52 46.34 7.35 46.76 7.35C47.22 7.35 47.61 7.59 47.95 8.06L49.42 7.56C49 6.49 48.09 5.95 46.68 5.95C45.94 5.95 45.35 6.12 44.91 6.45C44.46 6.79 44.24 7.26 44.24 7.85C44.24 8.79 44.88 9.45 46.16 9.86C46.62 10.01 46.98 10.15 47.24 10.29C47.49 10.43 47.61 10.59 47.61 10.78C47.61 11.15 47.33 11.34 46.77 11.34C46.11 11.34 45.67 11.01 45.46 10.35ZM51.09 3.92L51.09 6.16L50.04 6.16L50.04 7.77L51.09 7.77L51.09 12.60L52.98 12.60L52.98 7.77L54.03 7.77L54.03 6.16L52.98 6.16L52.98 3.92ZM54.31 9.38C54.31 10.44 54.67 11.28 55.41 11.89C56.14 12.50 57.02 12.81 58.06 12.81C59.09 12.81 59.98 12.50 60.71 11.89C61.44 11.28 61.81 10.44 61.81 9.38C61.81 8.32 61.44 7.48 60.71 6.87C59.98 6.26 59.09 5.95 58.06 5.95C57.02 5.95 56.14 6.26 55.41 6.87C54.67 7.48 54.31 8.32 54.31 9.38ZM56.21 9.38C56.21 8.84 56.38 8.40 56.71 8.06C57.05 7.73 57.50 7.56 58.06 7.56C58.62 7.56 59.07 7.73 59.40 8.06C59.74 8.40 59.91 8.84 59.91 9.38C59.91 9.92 59.74 10.36 59.40 10.70C59.07 11.03 58.62 11.20 58.06 11.20C57.50 11.20 57.05 11.03 56.71 10.70C56.38 10.36 56.21 9.92 56.21 9.38ZM67.12 8.15L68.08 6.64C67.74 6.22 67.22 6.01 66.53 6.01C65.89 6.01 65.35 6.35 64.89 7.03L64.89 6.16L62.93 6.16L62.93 12.60L64.89 12.60L64.89 9.02C64.89 8.57 64.98 8.26 65.16 8.09C65.34 7.91 65.64 7.83 66.04 7.83C66.46 7.83 66.82 7.93 67.12 8.15ZM73.51 8.62L70.39 8.62C70.47 8.22 70.66 7.91 70.98 7.69C71.30 7.46 71.65 7.35 72.04 7.35C72.90 7.35 73.39 7.77 73.51 8.62ZM70.38 9.87L75.47 9.87C75.49 9.69 75.50 9.49 75.50 9.25C75.50 8.25 75.19 7.44 74.56 6.85C73.94 6.25 73.10 5.95 72.04 5.95C70.97 5.95 70.10 6.27 69.43 6.92C68.77 7.57 68.43 8.39 68.43 9.38C68.43 10.38 68.75 11.19 69.39 11.81C70.03 12.43 70.91 12.74 72.04 12.74C73.68 12.74 74.80 12.10 75.42 10.82L73.63 10.42C73.34 10.99 72.81 11.27 72.04 11.27C71.09 11.27 70.54 10.80 70.38 9.87Z"></path></g><!----><g data-v-423bf9ae="" id="374b60d9-ba85-46fc-9587-b7f31e7b25e9" transform="matrix(5.434811401367187,0,0,5.434811401367187,-61.85991880442589,-61.88495484436271)" stroke="none" fill="#010033"><path d="M326.521 179.454H185.458a6 6 0 0 0-6 6v141.071a6 6 0 0 0 6 6h141.063a6 6 0 0 0 6-6V185.454a6 6 0 0 0-6-6zm-6 141.071H191.458V191.454h129.063v129.071z"></path><path d="M484.13 299.91c-6.929 0-12.854 4.325-15.255 10.412h-10.95l-12.288-12.303a5.997 5.997 0 0 0-4.245-1.76h-44.696v-4.056a6 6 0 0 0-6-6h-16.749v-14.162h16.749a6 6 0 0 0 6-6v-4.051h66.985c2.402 6.099 8.334 10.433 15.27 10.433 9.068 0 16.445-7.372 16.445-16.433 0-9.049-7.377-16.411-16.445-16.411-6.934 0-12.864 4.324-15.268 10.411h-66.988v-4.054a6 6 0 0 0-6-6h-16.749v-14.158h16.749a6 6 0 0 0 6-6v-4.056h44.696c1.593 0 3.12-.633 4.245-1.76l12.288-12.302h10.949c2.401 6.089 8.327 10.416 15.256 10.416 9.052 0 16.416-7.364 16.416-16.416 0-9.049-7.364-16.411-16.416-16.411-6.928 0-12.854 4.324-15.255 10.411h-13.437c-1.593 0-3.12.633-4.245 1.76l-12.288 12.302h-42.209v-4.046a6 6 0 0 0-6-6h-16.749v-14.162h16.443a6 6 0 0 0 6-6v-4.056h27.316c2.399 6.101 8.327 10.437 15.259 10.437 9.049 0 16.411-7.374 16.411-16.437 0-9.044-7.361-16.405-16.411-16.407-6.928 0-12.853 4.323-15.255 10.407h-27.32v-4.05a6 6 0 0 0-6-6h-16.443v-3.352a6 6 0 0 0-6-6h-3.396V121.29a6 6 0 0 0-6-6h-4.029V90.98c6.086-2.402 10.409-8.329 10.409-15.259 0-9.047-7.361-16.407-16.409-16.407-9.047 0-16.407 7.36-16.407 16.407 0 6.929 4.323 12.856 10.407 15.258v24.31h-4.068a6 6 0 0 0-6 6v16.767h-14.122V121.29a6 6 0 0 0-6-6h-4.078V73.099l12.327-12.304a5.998 5.998 0 0 0 1.762-4.247V43.11c6.086-2.402 10.41-8.329 10.41-15.259 0-9.052-7.361-16.416-16.41-16.416-9.047 0-16.407 7.364-16.407 16.416 0 6.93 4.323 12.856 10.407 15.259v10.949l-12.327 12.304a5.998 5.998 0 0 0-1.762 4.247v44.68h-4.068a6 6 0 0 0-6 6v16.767h-14.117V121.29a6 6 0 0 0-6-6h-4.076V48.275c6.088-2.402 10.413-8.329 10.413-15.259 0-9.049-7.363-16.411-16.413-16.411s-16.413 7.362-16.413 16.411c0 6.93 4.325 12.857 10.413 15.259v67.015h-4.037a6 6 0 0 0-6 6v16.767h-14.156V121.29a6 6 0 0 0-6-6h-4.072V70.61a5.996 5.996 0 0 0-1.761-4.246L201.641 54.06V43.111c6.088-2.402 10.414-8.329 10.414-15.26 0-9.052-7.363-16.416-16.414-16.416-9.049 0-16.411 7.364-16.411 16.416 0 6.93 4.324 12.857 10.411 15.26v13.437c0 1.593.633 3.121 1.761 4.246l12.324 12.304v42.192h-4.032a6 6 0 0 0-6 6v16.767h-14.162v-16.468a6 6 0 0 0-6-6h-4.071V88.275c6.088-2.402 10.414-8.331 10.414-15.264 0-9.059-7.363-16.428-16.414-16.428-9.049 0-16.411 7.37-16.411 16.428 0 6.932 4.324 12.861 10.411 15.264v27.314h-4.067a6 6 0 0 0-6 6v16.468h-3.352a6 6 0 0 0-6 6v3.352h-16.757a6 6 0 0 0-6 6v4.05H91.024c-2.4-6.097-8.329-10.429-15.261-10.429-9.071 0-16.45 7.37-16.45 16.429 0 4.393 1.717 8.52 4.836 11.621a16.363 16.363 0 0 0 11.611 4.79h.003c6.93 0 12.857-4.324 15.259-10.411h24.264v4.056a6 6 0 0 0 6 6h16.757v14.162h-16.757a6 6 0 0 0-6 6v4.046H73.097L60.81 191.421a6.001 6.001 0 0 0-4.245-1.76H43.131c-2.4-6.096-8.328-10.428-15.259-10.428-9.051 0-16.414 7.37-16.414 16.428 0 9.05 7.363 16.415 16.414 16.416 6.93 0 12.857-4.327 15.258-10.416h10.949l12.287 12.302a6.001 6.001 0 0 0 4.245 1.76h44.675v4.056a6 6 0 0 0 6 6h16.757v14.158h-16.757a6 6 0 0 0-6 6v4.054H48.317c-2.401-6.096-8.33-10.428-15.263-10.428-9.071 0-16.45 7.37-16.45 16.428 0 9.052 7.379 16.415 16.45 16.415 6.931 0 12.859-4.326 15.261-10.415h66.97v4.051a6 6 0 0 0 6 6h16.757v14.162h-16.757a6 6 0 0 0-6 6v4.056H70.61c-1.593 0-3.12.633-4.245 1.76l-12.287 12.303h-10.95c-2.402-6.087-8.328-10.412-15.257-10.412-9.051 0-16.414 7.362-16.414 16.412 0 9.049 7.363 16.41 16.414 16.41 6.929 0 12.855-4.324 15.257-10.41h13.437c1.593 0 3.12-.633 4.245-1.76l12.287-12.303h42.188v4.046a6 6 0 0 0 6 6h16.757v14.163h-16.451a6 6 0 0 0-6 6v4.051H88.294c-2.402-6.087-8.33-10.411-15.261-10.411-9.07 0-16.448 7.362-16.448 16.411s7.378 16.41 16.448 16.41c6.931 0 12.858-4.324 15.261-10.41h27.297v4.055a6 6 0 0 0 6 6h16.451v3.352a6 6 0 0 0 6 6h3.388v16.772a6 6 0 0 0 6 6h4.031v24.305c-6.087 2.401-10.411 8.327-10.411 15.255 0 9.049 7.362 16.411 16.411 16.411 9.051 0 16.414-7.362 16.414-16.411 0-6.929-4.326-12.854-10.414-15.255V396.7h4.071a6 6 0 0 0 6-6v-16.772h14.162V390.7a6 6 0 0 0 6 6h4.032v42.186l-12.324 12.305a6.002 6.002 0 0 0-1.761 4.246v13.437c-6.087 2.403-10.411 8.332-10.411 15.264 0 9.06 7.362 16.43 16.411 16.43 9.051 0 16.414-7.37 16.414-16.43 0-6.933-4.326-12.862-10.414-15.264v-10.948l12.324-12.305a6.002 6.002 0 0 0 1.761-4.246v-44.674h4.072a6 6 0 0 0 6-6v-16.772h14.156v16.772a6 6 0 0 0 6 6h4.037v67.008c-6.088 2.402-10.413 8.33-10.413 15.26 0 9.052 7.363 16.415 16.413 16.415s16.413-7.363 16.413-16.415c0-6.93-4.325-12.858-10.413-15.26v-67.008h4.076a6 6 0 0 0 6-6v-16.772h14.117v16.772a6 6 0 0 0 6 6h4.068v44.674c0 1.593.634 3.121 1.762 4.247l12.327 12.304v10.949c-6.084 2.403-10.407 8.332-10.407 15.263 0 9.06 7.36 16.43 16.407 16.43 9.049 0 16.41-7.37 16.41-16.43 0-6.932-4.324-12.861-10.41-15.264v-13.437a6.001 6.001 0 0 0-1.762-4.247l-12.327-12.304V396.7h4.078a6 6 0 0 0 6-6v-16.772h14.157v16.473a6 6 0 0 0 6 6h4.033v27.316c-6.084 2.405-10.407 8.338-10.407 15.275 0 9.047 7.36 16.407 16.407 16.407 4.384 0 8.506-1.71 11.606-4.814a16.295 16.295 0 0 0 4.803-11.593c0-6.937-4.324-12.87-10.409-15.276v-27.315h4.071a6 6 0 0 0 6-6v-16.473h3.354a6 6 0 0 0 6-6v-3.352h16.749a6 6 0 0 0 6-6v-4.055h24.281c2.401 6.096 8.331 10.429 15.265 10.429 9.068 0 16.445-7.37 16.445-16.429 0-4.381-1.715-8.503-4.827-11.606a16.346 16.346 0 0 0-11.615-4.805h-.003c-6.932 0-12.86 4.325-15.263 10.411h-24.284v-4.051a6 6 0 0 0-6-6h-16.749v-14.163h16.749a6 6 0 0 0 6-6v-4.046h42.209l12.288 12.303a5.997 5.997 0 0 0 4.245 1.76h13.435c2.4 6.096 8.327 10.428 15.257 10.428 9.052 0 16.416-7.369 16.416-16.428.003-9.052-7.361-16.414-16.413-16.414zm-5.179-48.33c2.451 0 4.445 1.979 4.445 4.411 0 2.444-1.994 4.433-4.445 4.433a4.42 4.42 0 1 1 0-8.844zm-104.711.357h10.455v8.105H374.24v-8.105zm109.89-60.687a4.419 4.419 0 0 1 4.416 4.411 4.421 4.421 0 0 1-4.416 4.416 4.413 4.413 0 1 1 0-8.827zm-109.89 14.427h10.455v8.102H374.24v-8.102zm64.723-46.625a4.415 4.415 0 0 1 4.413 4.407c0 2.447-1.979 4.437-4.411 4.437-2.43 0-4.407-1.99-4.407-4.437a4.412 4.412 0 0 1 4.405-4.407zm-90.442-87.738a4.412 4.412 0 0 1 4.409 4.407 4.415 4.415 0 0 1-4.409 4.411 4.414 4.414 0 0 1-4.407-4.411 4.413 4.413 0 0 1 4.407-4.407zm4.03 55.976v10.463h-8.098V127.29h8.098zM316.342 23.435a4.418 4.418 0 0 1 4.41 4.416 4.415 4.415 0 0 1-4.404 4.41h-.012a4.415 4.415 0 0 1-4.401-4.41 4.417 4.417 0 0 1 4.407-4.416zM306.331 127.29v10.463h-8.146V127.29h8.146zm-50.34-98.685c2.434 0 4.413 1.979 4.413 4.411s-1.979 4.411-4.413 4.411-4.413-1.979-4.413-4.411 1.98-4.411 4.413-4.411zm4.076 98.685v10.463h-8.113V127.29h8.113zM195.641 23.435a4.42 4.42 0 0 1 4.414 4.416 4.417 4.417 0 0 1-4.408 4.41h-.012a4.417 4.417 0 0 1-4.405-4.41 4.419 4.419 0 0 1 4.411-4.416zm18.157 103.855v10.463h-8.104V127.29h8.104zm-50.337-58.707c2.434 0 4.414 1.986 4.414 4.428a4.42 4.42 0 0 1-4.414 4.416 4.419 4.419 0 0 1-4.411-4.416c0-2.442 1.979-4.428 4.411-4.428zm4.071 59.006v10.467h-8.138v-10.467h8.138zM75.761 167.87c-1.19 0-2.31-.461-3.151-1.299a4.361 4.361 0 0 1-1.298-3.112c0-2.442 1.997-4.429 4.45-4.429 2.432 0 4.411 1.987 4.411 4.429a4.417 4.417 0 0 1-4.412 4.411zm61.974-.355h-10.45v-8.106h10.45v8.106zM27.872 200.077a4.42 4.42 0 0 1-4.415-4.416c0-2.442 1.98-4.428 4.414-4.428 2.429 0 4.404 1.983 4.408 4.422v.012a4.416 4.416 0 0 1-4.407 4.41zm109.863 13.702h-10.45v-8.102h10.45v8.102zM33.054 260.406c-2.454 0-4.45-1.98-4.45-4.415 0-2.442 1.997-4.428 4.45-4.428 2.433 0 4.413 1.986 4.413 4.428a4.419 4.419 0 0 1-4.413 4.415zm104.681-.364h-10.45v-8.105h10.45v8.105zm-109.864 60.69a4.417 4.417 0 0 1-4.414-4.41 4.418 4.418 0 0 1 4.414-4.412 4.415 4.415 0 0 1 4.408 4.406v.012a4.414 4.414 0 0 1-4.408 4.404zm109.864-14.426h-10.45v-8.102h10.45v8.102zM73.033 352.93c-2.453 0-4.448-1.979-4.448-4.41 0-2.433 1.996-4.411 4.448-4.411a4.417 4.417 0 0 1 4.413 4.411c0 2.431-1.98 4.41-4.413 4.41zm65.008-.356h-10.45v-8.105h10.45v8.105zm25.42 88.095a4.416 4.416 0 0 1-4.411-4.411 4.413 4.413 0 0 1 8.825 0 4.418 4.418 0 0 1-4.414 4.411zm0-55.972l-.019.001h-4.011v-10.473h8.102v10.473h-4.052l-.02-.001zm32.18 103.868c-2.432 0-4.411-1.987-4.411-4.43a4.418 4.418 0 0 1 4.405-4.415h.012a4.42 4.42 0 0 1 4.408 4.415c0 2.443-1.98 4.43-4.414 4.43zm14.085-103.868l-.019.001h-4.013v-10.473h8.104v10.473h-4.052l-.02-.001zm46.265 98.684a4.418 4.418 0 0 1-4.413-4.415c0-2.433 1.979-4.411 4.413-4.411s4.413 1.979 4.413 4.411a4.419 4.419 0 0 1-4.413 4.415zm0-98.684l-.019.001h-4.018v-10.473h8.113v10.473h-4.057l-.019-.001zm60.351 103.868c-2.43 0-4.407-1.987-4.407-4.43a4.416 4.416 0 0 1 4.401-4.415h.012a4.418 4.418 0 0 1 4.404 4.415c0 2.443-1.979 4.43-4.41 4.43zm-14.089-103.868l-.019.001h-4.049v-10.473h8.146v10.473h-4.059l-.019-.001zm49.386 57.405a4.378 4.378 0 0 1-3.117 1.295 4.413 4.413 0 0 1-4.407-4.407c0-2.442 1.978-4.429 4.407-4.429 2.432 0 4.409 1.986 4.409 4.43a4.38 4.38 0 0 1-1.292 3.111zm84.604-97.994c1.186 0 2.302.463 3.145 1.303a4.365 4.365 0 0 1 1.3 3.108c0 2.442-1.994 4.429-4.445 4.429-2.435 0-4.415-1.986-4.415-4.429a4.417 4.417 0 0 1 4.415-4.411zm-62.003.361h10.455v8.105H374.24v-8.105zm-224.198 17.457V150.057h211.904v3.333l-.001.019v20.106l.001.019v188.391H150.042zM384.39 159.409v8.106h-10.443v-8.106h10.443zm-31.797 224.989h-4.052l-.019-.001-.019.001h-4.014v-10.473h8.104v10.473zm32.102-78.092H374.24v-8.102h10.455v8.102zm99.435 14.444c-2.43 0-4.406-1.986-4.406-4.428a4.414 4.414 0 0 1 4.406-4.412 4.419 4.419 0 0 1 0 8.84z"></path></g><!----></svg>