<svg data-v-fde0c5aa="" xmlns="http://www.w3.org/2000/svg" viewBox="0 0 300 300" class="font"><!----><defs data-v-fde0c5aa=""><!----></defs><rect data-v-fde0c5aa="" fill="#00acff" x="0" y="0" width="300px" height="300px" class="logo-background-square"></rect><defs data-v-fde0c5aa=""><!----></defs><g data-v-fde0c5aa="" id="2efeeab0-ee8c-4382-a21a-2a2b12e78f89" fill="#010033" transform="matrix(2.924754007308477,0,0,2.924754007308477,39.18106887446705,122.97527154994565)"><path d="M8.74 7.52L9.45 12.60L11.48 12.60L9.94 2.45L5.88 8.64L1.82 2.45L0.28 12.60L2.31 12.60L3.02 7.52L5.88 11.69ZM14.15 9.31C14.15 8.82 14.33 8.41 14.68 8.10C15.03 7.79 15.47 7.63 16.00 7.63C16.53 7.63 16.98 7.77 17.32 8.04C17.68 8.32 17.85 8.74 17.85 9.31C17.85 9.88 17.68 10.30 17.32 10.58C16.98 10.85 16.53 10.99 16.00 10.99C15.45 10.99 15.01 10.85 14.66 10.56C14.32 10.28 14.15 9.86 14.15 9.31ZM12.11 13.09C12.24 14.00 12.63 14.71 13.27 15.24C13.92 15.77 14.80 16.03 15.92 16.03C16.45 16.03 16.94 15.97 17.38 15.84C17.82 15.71 18.23 15.52 18.59 15.25C18.94 14.98 19.23 14.60 19.43 14.13C19.64 13.65 19.74 13.09 19.74 12.46L19.74 6.16L17.85 6.16L17.85 7.28C17.33 6.39 16.55 5.95 15.51 5.95C14.59 5.95 13.81 6.24 13.19 6.83C12.56 7.42 12.25 8.25 12.25 9.31C12.25 10.37 12.56 11.20 13.19 11.79C13.81 12.38 14.59 12.67 15.51 12.67C16.55 12.67 17.33 12.23 17.85 11.34L17.85 12.46C17.85 13.09 17.68 13.57 17.35 13.88C17.02 14.19 16.59 14.35 16.06 14.35C15.45 14.35 14.98 14.23 14.63 14C14.28 13.77 14.08 13.46 14.03 13.09ZM25.69 9.94C25.69 10.49 25.57 10.85 25.32 11.03C25.07 11.20 24.72 11.28 24.26 11.28C23.91 11.28 23.65 11.18 23.48 10.98C23.32 10.77 23.24 10.43 23.24 9.94L23.24 6.16L21.35 6.16L21.35 10.50C21.35 12.00 22.04 12.75 23.42 12.75C24.50 12.75 25.26 12.35 25.69 11.55L25.69 12.60L27.58 12.60L27.58 6.16L25.69 6.16ZM34.78 9.38C34.78 9.93 34.61 10.35 34.27 10.63C33.92 10.92 33.48 11.06 32.93 11.06C32.40 11.06 31.95 10.92 31.60 10.65C31.25 10.37 31.08 9.95 31.08 9.38C31.08 8.81 31.25 8.39 31.60 8.11C31.95 7.84 32.40 7.70 32.93 7.70C33.46 7.70 33.90 7.86 34.25 8.17C34.60 8.48 34.78 8.89 34.78 9.38ZM31.08 15.68L31.08 11.41C31.60 12.30 32.38 12.74 33.42 12.74C34.36 12.74 35.14 12.46 35.76 11.90C36.37 11.34 36.68 10.50 36.68 9.38C36.68 8.26 36.37 7.42 35.76 6.86C35.14 6.30 34.36 6.02 33.42 6.02C32.38 6.02 31.60 6.46 31.08 7.35L31.08 6.16L29.19 6.16L29.19 15.68ZM37.59 3.61C37.59 3.91 37.70 4.17 37.93 4.38C38.16 4.60 38.43 4.70 38.75 4.70C39.07 4.70 39.34 4.60 39.57 4.38C39.80 4.17 39.91 3.91 39.91 3.61C39.91 3.31 39.80 3.06 39.57 2.84C39.34 2.63 39.07 2.52 38.75 2.52C38.43 2.52 38.16 2.63 37.93 2.84C37.70 3.06 37.59 3.31 37.59 3.61ZM37.79 6.16L37.79 12.60L39.70 12.60L39.70 6.16ZM40.61 10.08L43.41 10.08L43.41 8.47L40.61 8.47ZM45.46 10.35L43.83 10.88C43.93 11.48 44.24 11.95 44.77 12.29C45.30 12.64 45.97 12.81 46.77 12.81C47.59 12.81 48.25 12.61 48.77 12.22C49.29 11.83 49.55 11.35 49.55 10.78C49.55 10.23 49.38 9.79 49.04 9.47C48.69 9.15 48.25 8.89 47.70 8.68C47.57 8.63 47.40 8.58 47.21 8.51C47.01 8.45 46.86 8.40 46.76 8.36C46.66 8.32 46.55 8.27 46.44 8.22C46.33 8.16 46.25 8.11 46.20 8.05C46.15 7.99 46.13 7.93 46.13 7.85C46.13 7.52 46.34 7.35 46.76 7.35C47.22 7.35 47.61 7.59 47.95 8.06L49.42 7.56C49 6.49 48.09 5.95 46.68 5.95C45.94 5.95 45.35 6.12 44.91 6.45C44.46 6.79 44.24 7.26 44.24 7.85C44.24 8.79 44.88 9.45 46.16 9.86C46.62 10.01 46.98 10.15 47.24 10.29C47.49 10.43 47.61 10.59 47.61 10.78C47.61 11.15 47.33 11.34 46.77 11.34C46.11 11.34 45.67 11.01 45.46 10.35ZM51.09 3.92L51.09 6.16L50.04 6.16L50.04 7.77L51.09 7.77L51.09 12.60L52.98 12.60L52.98 7.77L54.03 7.77L54.03 6.16L52.98 6.16L52.98 3.92ZM54.31 9.38C54.31 10.44 54.67 11.28 55.41 11.89C56.14 12.50 57.02 12.81 58.06 12.81C59.09 12.81 59.98 12.50 60.71 11.89C61.44 11.28 61.81 10.44 61.81 9.38C61.81 8.32 61.44 7.48 60.71 6.87C59.98 6.26 59.09 5.95 58.06 5.95C57.02 5.95 56.14 6.26 55.41 6.87C54.67 7.48 54.31 8.32 54.31 9.38ZM56.21 9.38C56.21 8.84 56.38 8.40 56.71 8.06C57.05 7.73 57.50 7.56 58.06 7.56C58.62 7.56 59.07 7.73 59.40 8.06C59.74 8.40 59.91 8.84 59.91 9.38C59.91 9.92 59.74 10.36 59.40 10.70C59.07 11.03 58.62 11.20 58.06 11.20C57.50 11.20 57.05 11.03 56.71 10.70C56.38 10.36 56.21 9.92 56.21 9.38ZM67.12 8.15L68.08 6.64C67.74 6.22 67.22 6.01 66.53 6.01C65.89 6.01 65.35 6.35 64.89 7.03L64.89 6.16L62.93 6.16L62.93 12.60L64.89 12.60L64.89 9.02C64.89 8.57 64.98 8.26 65.16 8.09C65.34 7.91 65.64 7.83 66.04 7.83C66.46 7.83 66.82 7.93 67.12 8.15ZM73.51 8.62L70.39 8.62C70.47 8.22 70.66 7.91 70.98 7.69C71.30 7.46 71.65 7.35 72.04 7.35C72.90 7.35 73.39 7.77 73.51 8.62ZM70.38 9.87L75.47 9.87C75.49 9.69 75.50 9.49 75.50 9.25C75.50 8.25 75.19 7.44 74.56 6.85C73.94 6.25 73.10 5.95 72.04 5.95C70.97 5.95 70.10 6.27 69.43 6.92C68.77 7.57 68.43 8.39 68.43 9.38C68.43 10.38 68.75 11.19 69.39 11.81C70.03 12.43 70.91 12.74 72.04 12.74C73.68 12.74 74.80 12.10 75.42 10.82L73.63 10.42C73.34 10.99 72.81 11.27 72.04 11.27C71.09 11.27 70.54 10.80 70.38 9.87Z"></path></g><!----><!----></svg>